<svg width="90" height="90" viewBox="0 0 90 90" fill="none" xmlns="http://www.w3.org/2000/svg">
<circle cx="45" cy="45" r="45" fill="#424240"/>
<path d="M84.6532 49.3236L71.9443 55.9605V52.5872C71.9443 52.3466 72.0071 52.1269 72.1326 51.9282C72.2581 51.7294 72.4569 51.5569 72.7288 51.4104L77.1848 48.9942C77.4463 48.8477 77.7287 48.7327 78.032 48.649C78.3458 48.5548 78.6701 48.4659 79.0048 48.3822C78.6701 48.2986 78.3458 48.2097 78.032 48.1155C77.7287 48.0109 77.4463 47.8854 77.1848 47.739L72.7288 45.3384C72.4569 45.192 72.2581 45.0194 72.1326 44.8206C72.0071 44.6114 71.9443 44.3865 71.9443 44.146V40.7726L84.6532 47.4252V49.3236Z" fill="#35E852"/>
<path d="M4.28571 47.4252L16.9946 40.7726V44.146C16.9946 44.3865 16.9318 44.6114 16.8063 44.8206C16.6808 45.0194 16.482 45.192 16.2101 45.3384L11.7541 47.739C11.4822 47.8854 11.1945 48.0109 10.8912 48.1155C10.5878 48.2097 10.2688 48.2986 9.9341 48.3822C10.2688 48.4659 10.5878 48.5548 10.8912 48.649C11.1945 48.7327 11.4822 48.8477 11.7541 48.9942L16.2101 51.4104C16.482 51.5569 16.6808 51.7294 16.8063 51.9282C16.9318 52.1269 16.9946 52.3466 16.9946 52.5872V55.9605L4.28571 49.3236V47.4252Z" fill="#35E852"/>
<path d="M37.0462 52.729C37.0462 52.3031 36.9836 51.9211 36.8583 51.5829C36.7331 51.2322 36.5014 50.9065 36.1632 50.6059C35.825 50.3053 35.3365 50.0047 34.6977 49.7041C34.0714 49.3909 33.2447 49.0653 32.2176 48.7271C31.0152 48.3263 29.8566 47.8753 28.7418 47.3743C27.6271 46.8608 26.6313 46.2658 25.7545 45.5894C24.8777 44.9005 24.1825 44.0989 23.669 43.1846C23.1555 42.2577 22.8987 41.1805 22.8987 39.953C22.8987 38.7756 23.1617 37.7172 23.6878 36.7778C24.2139 35.8258 24.9466 35.0179 25.886 34.3541C26.8379 33.6777 27.9527 33.1642 29.2303 32.8135C30.5079 32.4502 31.9045 32.2686 33.4201 32.2686C35.4242 32.2686 37.1903 32.6193 38.7184 33.3207C40.259 34.0096 41.4614 34.9929 42.3257 36.2705C43.2025 37.5356 43.6409 39.0324 43.6409 40.7609H37.0838C37.0838 40.072 36.9397 39.4645 36.6517 38.9384C36.3761 38.4123 35.9565 37.999 35.3928 37.6984C34.8292 37.3978 34.1215 37.2475 33.2698 37.2475C32.4431 37.2475 31.7479 37.3727 31.1843 37.6232C30.6206 37.8738 30.1948 38.2119 29.9067 38.6378C29.6186 39.0511 29.4746 39.5083 29.4746 40.0093C29.4746 40.4227 29.5873 40.7984 29.8128 41.1366C30.0507 41.4623 30.3827 41.7692 30.8085 42.0573C31.2469 42.3453 31.773 42.6209 32.3867 42.8839C33.013 43.147 33.7144 43.4037 34.491 43.6543C35.944 44.1177 37.2341 44.6375 38.3614 45.2137C39.5012 45.7773 40.4594 46.4224 41.236 47.1489C42.0251 47.8628 42.6201 48.677 43.0209 49.5913C43.4342 50.5057 43.6409 51.539 43.6409 52.6914C43.6409 53.9189 43.4029 55.0086 42.9269 55.9605C42.451 56.9125 41.7683 57.7204 40.879 58.3842C39.9897 59.0355 38.925 59.5303 37.685 59.8685C36.445 60.2067 35.0609 60.3758 33.5328 60.3758C32.13 60.3758 30.7459 60.2004 29.3806 59.8497C28.0279 59.4865 26.8004 58.9353 25.6981 58.1963C24.5959 57.4448 23.7128 56.4866 23.049 55.3217C22.3977 54.1443 22.072 52.7478 22.072 51.132H28.6855C28.6855 51.9336 28.7919 52.61 29.0049 53.1611C29.2178 53.7122 29.5309 54.1569 29.9443 54.4951C30.3576 54.8207 30.8649 55.0587 31.4661 55.209C32.0673 55.3468 32.7562 55.4157 33.5328 55.4157C34.372 55.4157 35.0484 55.2967 35.5619 55.0587C36.0755 54.8082 36.4513 54.4825 36.6892 54.0817C36.9272 53.6684 37.0462 53.2175 37.0462 52.729Z" fill="#35E852"/>
<path d="M65.8673 54.9272V60H51.2877V54.9272H65.8673ZM53.6362 32.6444V60H47.0415V32.6444H53.6362ZM63.9885 43.504V48.4077H51.2877V43.504H63.9885ZM65.9237 32.6444V37.736H51.2877V32.6444H65.9237Z" fill="#35E852"/>
</svg>
