<svg width="100" height="100" viewBox="0 0 100 100" fill="none" xmlns="http://www.w3.org/2000/svg">
<rect x="2" y="2" width="96" height="96" rx="48" fill="#363738" stroke="#28EEA7" stroke-width="4"/>
<path d="M35.3926 58.5629C33.7126 58.5629 32.1226 58.4129 30.6226 58.1129C29.1226 57.8129 27.4876 57.2879 25.7176 56.5379V48.9779C27.5776 50.0579 29.3326 50.8079 30.9826 51.2279C32.6326 51.6179 34.1776 51.8129 35.6176 51.8129C36.4876 51.8129 37.2376 51.7379 37.8676 51.5879C38.4976 51.4379 38.9776 51.1829 39.3076 50.8229C39.6676 50.4629 39.8476 49.9529 39.8476 49.2929C39.8476 48.5429 39.6226 47.9579 39.1726 47.5379C38.7226 47.0879 38.0326 46.6379 37.1026 46.1879C36.2026 45.7079 35.0476 45.0779 33.6376 44.2979C32.0176 43.3679 30.6526 42.4679 29.5426 41.5979C28.4626 40.6979 27.6526 39.6779 27.1126 38.5379C26.5726 37.3979 26.3026 36.0029 26.3026 34.3529C26.3026 32.4929 26.6626 30.9029 27.3826 29.5829C28.1326 28.2629 29.3176 27.2579 30.9376 26.5679C32.5576 25.8479 34.6876 25.4879 37.3276 25.4879C39.5176 25.4879 41.4676 25.7129 43.1776 26.1629C44.8876 26.5829 46.4326 27.1379 47.8126 27.8279L45.3376 34.0829C43.9576 33.3929 42.6526 32.9279 41.4226 32.6879C40.1926 32.4179 39.0826 32.2829 38.0926 32.2829C37.3726 32.2829 36.7276 32.3579 36.1576 32.5079C35.5876 32.6579 35.1376 32.9129 34.8076 33.2729C34.5076 33.6029 34.3576 34.0979 34.3576 34.7579C34.3576 35.2979 34.5076 35.7779 34.8076 36.1979C35.1376 36.5879 35.7376 37.0379 36.6076 37.5479C37.5076 38.0579 38.7826 38.7479 40.4326 39.6179C41.7826 40.3079 43.0276 41.0579 44.1676 41.8679C45.3076 42.6479 46.2226 43.6229 46.9126 44.7929C47.6026 45.9329 47.9476 47.4029 47.9476 49.2029C47.9476 50.4029 47.7526 51.5579 47.3626 52.6679C46.9726 53.7779 46.2976 54.7829 45.3376 55.6829C44.4076 56.5529 43.1326 57.2579 41.5126 57.7979C39.8926 58.3079 37.8526 58.5629 35.3926 58.5629ZM52.7 58.1129V25.9829H74.3001V32.7329H60.3951V38.2229H73.7151V44.9729H60.3951V51.3629H74.3001V58.1129H52.7Z" fill="#28EEA7"/>
<path d="M24.3132 75.4302V66.4338H30.3612V68.3238H26.4678V70.2012H30.21V72.0912H26.4678V75.4302H24.3132ZM31.1753 75.4302L33.4433 66.396H36.3287L38.6093 75.4302H36.4169L35.3333 70.1004C35.2913 69.882 35.2409 69.6384 35.1821 69.3696C35.1317 69.1008 35.0813 68.8362 35.0309 68.5758C34.9889 68.3154 34.9511 68.0928 34.9175 67.908C34.8923 68.0928 34.8545 68.3154 34.8041 68.5758C34.7537 68.8362 34.6991 69.1008 34.6403 69.3696C34.5899 69.6384 34.5395 69.882 34.4891 70.1004L33.3173 75.4302H31.1753ZM33.3929 73.578L33.6575 71.8014H36.0767L36.2909 73.578H33.3929ZM42.8632 75.5562C42.0484 75.5562 41.368 75.3714 40.822 75.0018C40.276 74.6322 39.8644 74.1114 39.5872 73.4394C39.31 72.759 39.1714 71.961 39.1714 71.0454C39.1714 70.2978 39.268 69.63 39.4612 69.042C39.6544 68.454 39.9358 67.9584 40.3054 67.5552C40.675 67.1436 41.1202 66.8328 41.641 66.6228C42.1702 66.4128 42.7666 66.3078 43.4302 66.3078C43.825 66.3078 44.2114 66.3498 44.5894 66.4338C44.9758 66.5094 45.3748 66.6312 45.7864 66.7992L45.1942 68.664C44.9002 68.5212 44.602 68.4204 44.2996 68.3616C43.9972 68.2944 43.72 68.2608 43.468 68.2608C43.0816 68.2608 42.754 68.328 42.4852 68.4624C42.2164 68.5884 42.0022 68.7732 41.8426 69.0168C41.6914 69.2604 41.578 69.5544 41.5024 69.8988C41.4352 70.2432 41.4016 70.6296 41.4016 71.058C41.4016 71.6712 41.4646 72.1668 41.5906 72.5448C41.725 72.9144 41.9266 73.1874 42.1954 73.3638C42.4726 73.5318 42.8212 73.6158 43.2412 73.6158C43.5772 73.6158 43.9468 73.5654 44.35 73.4646C44.7532 73.3638 45.1186 73.2126 45.4462 73.011V75.0396C45.0514 75.216 44.6314 75.3462 44.1862 75.4302C43.741 75.5142 43.3 75.5562 42.8632 75.5562ZM48.8937 75.4302V68.3238H46.4745V66.4338H53.5305V68.3238H51.0987V75.4302H48.8937ZM57.5575 75.5562C56.9527 75.5562 56.4277 75.4554 55.9825 75.2538C55.5373 75.0522 55.1719 74.754 54.8863 74.3592C54.6007 73.9644 54.3865 73.4814 54.2437 72.9102C54.1009 72.3306 54.0295 71.667 54.0295 70.9194C54.0295 69.9114 54.1555 69.0672 54.4075 68.3868C54.6679 67.698 55.0585 67.1772 55.5793 66.8244C56.1001 66.4716 56.7595 66.2952 57.5575 66.2952C58.1623 66.2952 58.6873 66.4002 59.1325 66.6102C59.5777 66.8118 59.9431 67.11 60.2287 67.5048C60.5227 67.8996 60.7369 68.3868 60.8713 68.9664C61.0141 69.5376 61.0855 70.1928 61.0855 70.932C61.0855 71.6628 61.0141 72.318 60.8713 72.8976C60.7369 73.4688 60.5269 73.9518 60.2413 74.3466C59.9557 74.7414 59.5903 75.0438 59.1451 75.2538C58.6999 75.4554 58.1707 75.5562 57.5575 75.5562ZM57.5575 73.6662C57.8767 73.6662 58.1287 73.5696 58.3135 73.3764C58.4983 73.1832 58.6285 72.8808 58.7041 72.4692C58.7881 72.0576 58.8301 71.5326 58.8301 70.8942C58.8301 69.9702 58.7377 69.2898 58.5529 68.853C58.3765 68.4162 58.0447 68.1978 57.5575 68.1978C57.2467 68.1978 56.9989 68.2902 56.8141 68.475C56.6293 68.6514 56.4949 68.9412 56.4109 69.3444C56.3269 69.7392 56.2849 70.2642 56.2849 70.9194C56.2849 71.5662 56.3227 72.0954 56.3983 72.507C56.4823 72.9102 56.6167 73.2042 56.8015 73.389C56.9947 73.5738 57.2467 73.6662 57.5575 73.6662ZM62.0886 75.4302V66.4338H64.9236C65.6712 66.4338 66.2844 66.5346 66.7632 66.7362C67.2504 66.9294 67.6116 67.2192 67.8468 67.6056C68.0904 67.992 68.2122 68.4708 68.2122 69.042C68.2122 69.42 68.1618 69.7602 68.061 70.0626C67.9602 70.3566 67.8048 70.6254 67.5948 70.869C67.3932 71.1042 67.1412 71.3184 66.8388 71.5116L68.8296 75.4302H66.486L65.037 72.1794H64.155V75.4302H62.0886ZM64.911 70.3524C65.1378 70.3524 65.3436 70.3146 65.5284 70.239C65.7132 70.1634 65.8602 70.0458 65.9694 69.8862C66.0786 69.7266 66.1332 69.5166 66.1332 69.2562C66.1332 68.9454 66.0366 68.7018 65.8434 68.5254C65.6586 68.349 65.3688 68.2608 64.974 68.2608H64.155V70.3524H64.911ZM71.5715 75.4302V71.9526L69.0767 66.4338H71.3951L72.6929 69.6342L73.9655 66.4338H76.2587L73.7765 71.9526V75.4302H71.5715Z" fill="#FCFCFD"/>
</svg>
